<svg width="47" height="24" viewBox="0 0 47 24" fill="none" xmlns="http://www.w3.org/2000/svg">
<path d="M16.3956 12.3563L16.9124 11.1706C18.6757 11.2111 20.1248 11.4848 21.2598 11.9915C22.4151 12.4779 23.2764 13.167 23.8439 14.0587C24.4114 14.9303 24.6952 15.9436 24.6952 17.0989C24.6952 18.3352 24.4114 19.4398 23.8439 20.4126C23.2764 21.3652 22.4252 22.1252 21.2902 22.6927C20.1755 23.24 18.777 23.5136 17.0948 23.5136H0.252441L2.01572 11.809L0.252441 0.712534H16.4868C18.5946 0.712534 20.2363 1.20909 21.4118 2.2022C22.5873 3.17505 23.1751 4.53298 23.1751 6.27599C23.1751 7.22857 22.9521 8.14061 22.5063 9.01211C22.0604 9.88362 21.3409 10.6234 20.3478 11.2314C19.3749 11.8192 18.0575 12.1941 16.3956 12.3563ZM6.48473 22.0543L4.05262 19.1054H15.3923C16.3044 19.1054 17.0137 18.8824 17.5204 18.4365C18.0271 17.9907 18.2805 17.3725 18.2805 16.5821C18.2805 15.7916 18.0069 15.1633 17.4596 14.6972C16.9124 14.2108 16.1017 13.9675 15.0275 13.9675H5.66389V9.65054H14.1763C14.9059 9.65054 15.5139 9.43773 16.0004 9.01211C16.5071 8.56623 16.7604 7.96833 16.7604 7.21843C16.7604 6.6104 16.5476 6.11385 16.122 5.72876C15.6963 5.32341 15.0883 5.12074 14.2979 5.12074H4.08302L6.48473 2.1718L8.0352 11.809L6.48473 22.0543Z" fill="black"/>
<path d="M37.4602 24C35.3523 24 33.4675 23.6149 31.8055 22.8447C30.1638 22.0746 28.8667 21.0004 27.9141 19.6222C26.9616 18.2237 26.4853 16.6023 26.4853 14.758C26.4853 12.9542 26.9413 11.3733 27.8533 10.0154C28.7654 8.63716 30.0118 7.56298 31.5927 6.79281C33.1938 6.02264 34.9977 5.63756 37.0042 5.63756C39.0917 5.63756 40.8651 6.09358 42.3244 7.00562C43.8039 7.8974 44.9389 9.16412 45.7294 10.8058C46.5401 12.4475 46.9454 14.383 46.9454 16.6125H31.5015V12.8731H43.4493L41.4124 14.1803C41.3313 13.2886 41.1083 12.5387 40.7435 11.9306C40.3787 11.3024 39.8923 10.8261 39.2843 10.5018C38.6965 10.1775 37.9871 10.0154 37.1562 10.0154C36.2441 10.0154 35.4638 10.1978 34.8153 10.5626C34.1667 10.9274 33.66 11.4341 33.2952 12.0827C32.9304 12.7109 32.748 13.4507 32.748 14.302C32.748 15.3964 32.9912 16.3287 33.4776 17.0989C33.9843 17.8488 34.7139 18.4264 35.6665 18.8318C36.6393 19.2371 37.825 19.4398 39.2235 19.4398C40.5003 19.4398 41.767 19.2777 43.0236 18.9534C44.3005 18.6088 45.4557 18.1325 46.4894 17.5245V21.4767C45.2936 22.2874 43.9255 22.9157 42.3852 23.3616C40.8651 23.7872 39.2235 24 37.4602 24Z" fill="black"/>
<circle cx="42.0504" cy="2.37511" r="2.37511" fill="#0FE24A"/>
</svg>
