<svg width="475" height="540" viewBox="0 0 475 540" fill="none" xmlns="http://www.w3.org/2000/svg">
<path d="M468.873 377C464.848 377.03 462.215 381.19 460.349 384.913C458.681 388.23 457.473 391.781 456.059 395.233L456.047 395.244C453.572 400.349 451.592 404.911 443.74 403.664C438.219 402.787 430.647 407.17 431.18 412.401C432.282 423.325 424.973 432.678 427.214 443.34C428.076 444.131 428.915 444.43 429.741 444.452C428.744 445.056 427.813 445.779 427.024 446.756C425.632 452.06 424.114 457.346 425.587 462.902C425.595 462.902 425.602 462.899 425.614 462.899C429.916 472.375 433.147 473.581 442.443 470.927C453.703 467.697 453.657 458.106 455.52 449.45C457.226 445.016 458.48 440.536 457.966 435.254L441.701 440.187L441.691 440.232C440.412 440.712 438.951 440.348 437.668 440.88C438.498 440.219 439.235 439.444 439.793 438.452C442.558 436.834 445.186 434.875 448.123 433.646C468.48 425.18 471.779 407.334 473.306 388.468C473.396 384.428 476.197 378.79 470.686 377.254C470.096 377.085 469.486 377 468.873 377.002V377Z" fill="white"/>
<path d="M459.873 377C455.848 377.03 453.215 381.19 451.349 384.913C449.681 388.23 448.473 391.781 447.059 395.233L447.047 395.244C444.572 400.349 442.592 404.911 434.74 403.664C429.219 402.787 421.647 407.17 422.18 412.401C423.282 423.325 415.973 432.678 418.214 443.34C419.076 444.131 419.915 444.43 420.741 444.452C419.744 445.056 418.813 445.779 418.024 446.756C416.632 452.06 415.114 457.346 416.587 462.902C416.595 462.902 416.602 462.899 416.614 462.899C420.916 472.375 424.147 473.581 433.443 470.927C444.703 467.697 444.657 458.106 446.52 449.45C448.226 445.016 449.48 440.536 448.966 435.254L432.701 440.187L432.691 440.232C431.412 440.712 429.951 440.348 428.668 440.88C429.498 440.219 430.235 439.444 430.793 438.452C433.558 436.834 436.186 434.875 439.123 433.646C459.48 425.18 462.779 407.334 464.306 388.468C464.396 384.428 467.197 378.79 461.686 377.254C461.096 377.085 460.486 377 459.873 377.002V377Z" fill="#0FE24A"/>
<path fill-rule="evenodd" clip-rule="evenodd" d="M109.24 79.2145L109.696 79.6027L109.954 79.8217L142.272 107.312C143.052 107.976 116.38 91.946 128.5 100.738C116.38 93.8165 129.165 100.226 128.5 101.008C127.838 101.785 118.745 93.8973 130.5 104.5C117.245 91.4821 125.781 101.672 125 101.008L106.57 86.5513L106.247 86.2762L105.081 85.2846C104.654 84.996 104.289 84.7267 103.987 84.4692L103.663 84.194C103.491 84.0472 103.382 83.9145 103.332 83.7982C81.2254 64.55 86.2405 42.0342 118.37 16.2475C140.188 47.9921 140.076 70.1726 118.032 82.7852C112.831 76.1254 110.782 66.6346 111.885 54.314C108.052 63.1946 107.171 71.4936 109.237 79.2122L109.24 79.2145ZM56.7731 100.74C56.5837 100.876 56.4679 100.965 56.4317 101.008C70.4349 96.0086 82.3329 96.6319 92.1298 102.878C81.73 139.772 52.2079 145.391 3.55812 119.729C30.1072 68.0403 59.0874 57.1156 90.4881 86.9544C91.5617 87.7943 92.6597 88.6877 93.7829 89.6432L111.885 107.312C112.665 107.976 99.9694 96.1188 116.5 109.8C94.2156 90.1775 90.5327 92.037 111.885 109.8C95.9944 93.0936 90.7903 90.9615 111.885 109.8C112.666 110.464 97.7137 94.9011 111.885 109.8L88.8366 94.9331C88.7508 94.8601 88.66 94.747 88.567 94.5946C78.252 90.8855 67.6517 92.9329 56.7716 100.738L56.7731 100.74Z" fill="#0FE24A"/>
<path d="M198.641 44.0099C188.776 43.837 179.149 45.9102 169.695 51.6527C169.691 51.6551 169.686 51.6513 169.688 51.6469V51.6469C169.689 51.6425 169.685 51.6386 169.681 51.641C165.021 54.4778 160.119 58.5817 155.469 59.5749C140.244 62.8369 127.404 71.5119 112.911 76.1199C106.945 78.0126 103.659 81.4278 103.016 86.945C102.81 88.7215 102.496 90.5323 101.44 91.9756C98.6435 95.797 94.7922 98.3932 90.4294 100.454C85.8536 102.607 81.493 105.065 80.1057 110.471C80.0945 110.515 80.0688 110.553 80.0337 110.582V110.582C80.0255 110.588 80.018 110.596 80.0112 110.604C79.789 110.863 79.5663 111.121 79.3433 111.38C73.3265 118.349 79.7606 127.023 88.5091 124.152L221.028 80.6632C226.165 78.9774 227.159 72.7783 224.203 68.2515C223.361 66.9613 222.737 65.6246 222.431 64.2062C221.483 59.8092 218.485 55.1793 214.185 56.5004V56.5004C210.558 57.6147 209.707 54.2137 213.264 52.8925C213.674 52.74 214.088 52.5911 214.503 52.4414C218.549 50.9799 217.55 46.562 213.332 45.7148C208.372 44.7187 203.478 44.0943 198.641 44.0099ZM289.315 77.6556C289.316 77.6557 289.316 77.656 289.315 77.656C282.196 78.098 275.346 78.6601 269.437 83.7739C262.417 89.8099 254.527 91.5249 246.567 84.8119C240.559 79.7419 234.704 80.7019 227.891 83.9999C212.159 91.6349 196.022 98.4569 180.065 105.604C143.05 122.263 106.042 138.939 69.0424 155.634C57.2144 159.502 56.6904 160.577 59.4104 172.359C61.3984 180.961 64.9854 190.016 54.8924 196.431C53.7863 196.932 52.8504 197.745 52.199 198.769C51.5508 199.789 51.2126 200.976 51.2252 202.184C51.2253 202.194 51.2196 202.205 51.2098 202.209V202.209C51.2012 202.212 51.1949 202.219 51.1924 202.228C48.5787 211.377 50.7743 220.272 52.4364 229.258C53.4934 234.95 56.1404 234.733 60.5134 232.655C70.4074 227.939 80.4464 223.52 90.4754 219.102C122.161 205.173 153.853 191.253 185.55 177.344C185.598 177.323 185.65 177.313 185.702 177.315V177.315C186.101 177.328 186.486 178.326 186.245 178.645C186.089 178.853 185.949 179.082 185.828 179.337C185.787 179.424 185.723 179.498 185.64 179.547L153.238 198.537L105.603 222.805C104.71 223.26 103.751 223.573 102.768 223.769C89.3569 226.448 77.5793 233.648 64.7504 237.796C57.1563 240.246 57.9601 242.875 62.5353 246.169C63.3366 246.745 64.0732 247.412 64.7577 248.123C69.9578 253.529 77.1847 255.049 83.9909 257.354C84.0001 257.357 84.0101 257.356 84.0187 257.352V257.352C84.0293 257.346 84.042 257.345 84.0528 257.35C89.6689 259.984 95.2513 262.704 100.93 265.21C106.216 267.56 111.13 268.372 114.347 261.668C116.155 257.864 119.444 257.312 123.383 259.12C129.52 261.979 136.016 262.065 142.584 260.931C142.586 260.93 142.587 260.932 142.586 260.933V260.933C142.585 260.934 142.586 260.936 142.587 260.936C142.598 260.937 142.609 260.936 142.619 260.937C142.622 260.938 142.625 260.939 142.627 260.941L142.633 260.946C142.647 260.958 142.667 260.96 142.684 260.953L142.689 260.95C142.698 260.946 142.708 260.944 142.717 260.945C144.113 261.066 145.499 261.129 146.828 260.88C148.917 260.489 150.958 259.602 153.083 259.553C154.972 259.509 156.859 259.484 158.721 259.673C172.708 261.101 187.273 256.347 200.745 263.793C203.303 265.202 205.688 262.411 207.974 261.246C232.249 248.822 256.494 236.343 280.711 223.809C312.878 207.232 345.035 190.658 377.178 174.086C379.931 172.661 386.197 172.038 380.76 166.483C380.747 166.469 380.738 166.45 380.738 166.432V166.432C380.738 166.421 380.736 166.41 380.731 166.4C376.983 158.85 373.625 151.157 372.292 142.747C372.29 142.733 372.295 142.719 372.304 142.708V142.708C372.311 142.699 372.314 142.689 372.313 142.678C371.886 136.405 369.746 130.656 367.037 125.041C364.687 120.225 362.041 118.886 356.556 121.326C343.861 126.982 330.839 132.143 317.828 136.796C304.817 141.45 292.737 148.758 278.751 150.656C278.749 150.656 278.748 150.656 278.746 150.656C278.735 150.654 278.724 150.654 278.713 150.652C278.711 150.652 278.71 150.649 278.712 150.648V150.648C278.713 150.647 278.713 150.646 278.713 150.645C278.587 148.505 280.52 148.749 281.685 148.099L345.797 112.402C348.845 110.705 350.909 107.514 350.313 104.077C349.569 99.7873 347.915 95.7294 346.189 91.6938C346.188 91.6908 346.184 91.6898 346.181 91.6913C346.18 91.6919 346.179 91.6925 346.177 91.693C346.175 91.6939 346.173 91.6915 346.174 91.6891V91.6891C346.174 91.6883 346.174 91.6875 346.174 91.6867C342.867 83.3117 337.067 80.8621 328.682 84.2139C323 86.5682 316.945 87.8963 310.798 88.1366C310.794 88.1368 310.79 88.1333 310.79 88.1289V88.1289C310.79 88.1236 310.785 88.1198 310.78 88.1217L310.752 88.1318C310.748 88.1332 310.744 88.1337 310.74 88.1334L305.966 87.7479C299.244 86.3111 295.016 80.7731 289.315 77.6559C289.315 77.6558 289.315 77.6555 289.315 77.6556V77.6556ZM390.897 186.663C389.334 186.757 387.567 187.413 385.483 188.507C360.038 201.853 334.367 214.763 308.769 227.802C278.689 243.162 248.563 258.361 218.592 273.884C216.704 274.851 211.402 274.644 213.932 279.369C217.235 285.517 216.236 292.016 216.405 298.462C216.405 298.465 216.403 298.468 216.4 298.47V298.47C216.398 298.471 216.396 298.474 216.396 298.476V298.498C216.33 301.395 216.27 304.288 216.215 307.18C216.204 307.704 216.233 308.229 216.317 308.747C217.097 313.523 218.904 318.075 221.618 322.089C221.62 322.091 221.622 322.092 221.624 322.093L221.635 322.095C221.64 322.096 221.641 322.104 221.636 322.106V322.106C221.633 322.107 221.632 322.112 221.634 322.115L225.288 326.98L232.175 335.6C233.281 336.984 233.939 338.656 234.397 340.368C236.356 347.69 241.254 347.519 248.998 344.87C279.672 334.361 310.644 324.694 341.508 314.728C342.332 314.462 343.235 314.686 343.838 315.308L344.659 316.154C344.66 316.154 344.661 316.155 344.662 316.155V316.155C344.666 316.154 344.668 316.159 344.664 316.161L310.995 332.095C310.706 332.232 310.405 332.342 310.096 332.428C305.318 333.762 300.905 335.892 296.572 338.266C295.293 338.967 293.746 339.1 292.424 339.718V339.718V339.718C291.103 340.335 290.008 341.437 288.644 341.955C276.04 346.742 263.743 352.303 251.822 358.606C251.439 358.809 250.953 358.752 250.542 358.89V358.89V358.89C250.133 359.027 249.772 359.349 249.346 359.419C247.726 359.682 246.176 360.249 244.775 361.082C243.28 361.971 241.745 362.825 240.073 363.301C236.17 364.413 232.617 366.287 232.824 370.928C233.456 385.066 228.552 397.921 224.902 411.111C224.901 411.114 224.898 411.117 224.895 411.118V411.118C224.893 411.118 224.891 411.12 224.889 411.122C223.768 413.077 223.274 415.329 223.472 417.574C223.671 419.82 224.555 421.951 226.003 423.679C228.786 427.013 232.481 423.082 235.535 421.971C281.886 405.166 328.198 388.253 374.47 371.235C380.587 368.994 388.437 368 392.151 363.618C396.145 358.892 390.741 351.275 391.157 344.796C391.679 342.017 392.21 339.238 392.732 336.449C392.732 336.447 392.733 336.445 392.734 336.443V336.443C392.737 336.438 392.741 336.435 392.743 336.429C395.412 328.235 401.776 322.11 405.363 314.429C405.675 313.76 406.033 313.113 406.464 312.514L421.291 291.912C421.552 291.551 421.773 291.163 421.979 290.768C425.509 284.023 433.41 281.697 437.684 275.694C437.692 275.682 437.681 275.666 437.667 275.671V275.671C437.65 275.677 437.639 275.652 437.655 275.644L437.665 275.638C439.268 274.655 440.716 273.555 442.046 272.358C448.996 266.104 440.358 255.18 431.421 257.926L414.993 262.973C414.904 263 414.813 263.017 414.72 263.023C413.737 263.091 412.759 263.191 411.787 263.316C411.002 263.417 410.317 261.895 410.808 261.276V261.276C410.877 261.19 410.963 261.119 411.062 261.072C413.652 259.832 416.265 258.617 418.835 257.332C432.66 250.429 447.831 246.407 460.842 237.769C460.836 237.768 460.83 237.766 460.823 237.765C460.619 237.725 460.665 237.659 460.842 237.769V237.769C462.095 234.011 461.631 230.189 460.921 226.467C460.92 226.462 460.926 226.46 460.928 226.464V226.464C460.93 226.468 460.936 226.466 460.936 226.462C459.921 221.196 457.597 218.502 451.906 222.308C448.305 224.888 444.151 226.593 439.775 227.287C439.773 227.288 439.77 227.289 439.768 227.29C439.765 227.292 439.761 227.294 439.758 227.296C439.749 227.302 439.738 227.295 439.741 227.285V227.285C439.743 227.277 439.737 227.268 439.729 227.268C431.814 226.672 423.647 226.822 418.212 219.402C418.209 219.397 418.212 219.391 418.217 219.391V219.391C418.223 219.391 418.226 219.384 418.222 219.38C415.677 215.899 412.97 218.415 410.388 219.444C390.462 227.45 370.542 235.471 350.627 243.505C350.536 243.542 350.44 243.565 350.342 243.575C350.033 243.607 349.728 243.647 349.424 243.694C348.596 243.824 347.79 242.569 348.154 241.814V241.814C348.233 241.65 348.365 241.5 348.527 241.416C362.877 233.974 377.215 226.505 391.538 219.011C397.818 215.722 408.083 213.355 409.276 208.711C410.83 202.692 401.08 197.749 397.529 191.424C395.542 187.906 393.504 186.506 390.899 186.663H390.897ZM393.512 372.339C393.512 372.34 393.511 372.34 393.51 372.34C392.641 372.282 391.525 372.533 390.091 373.123C339.662 393.937 289.186 414.635 238.661 435.217C234.803 436.826 233.971 438.235 235.951 442.247C240.775 452.003 245.211 461.968 247.697 472.655C247.697 472.656 247.697 472.657 247.696 472.657V472.657C247.694 472.657 247.694 472.66 247.696 472.66V472.66C247.697 472.66 247.697 472.661 247.697 472.661V472.672C247.995 475.608 248.709 478.582 248.519 481.492C248.067 488.224 249.287 490.292 256.606 487.039C290.092 472.129 323.94 458.052 357.417 443.134C371.666 436.783 381.369 425.5 387.323 411.046C387.324 411.043 387.322 411.04 387.319 411.04C387.318 411.041 387.317 411.041 387.316 411.041C387.312 411.041 387.308 411.031 387.31 411.028V411.028C395.948 401.143 397.295 389.325 396.346 376.91C396.128 374.09 395.425 372.466 393.515 372.339C393.514 372.339 393.513 372.339 393.512 372.339V372.339ZM357.363 450.005C357.358 449.996 357.348 449.993 357.339 449.998C323.09 467.678 290.369 484.934 257.248 501.386C249.169 505.409 247.407 509.765 250.996 516.727C251.39 517.492 251.719 518.293 251.993 519.108C254.075 525.296 258.681 529.319 264.257 532.525C264.259 532.525 264.259 532.527 264.259 532.528V532.528C264.259 532.531 264.262 532.533 264.265 532.532V532.532C264.265 532.532 264.266 532.532 264.266 532.532C264.266 532.532 264.266 532.532 264.267 532.532C264.269 532.532 264.271 532.534 264.273 532.534L264.279 532.536C264.285 532.536 264.289 532.539 264.292 532.543C266.036 534.88 268.344 536.089 270.966 536.679C272.355 536.991 273.72 537.431 275.009 538.035C286.154 543.255 298.759 537.807 305.675 524.874C306.707 522.946 308.165 521.253 310.063 520.168C317.752 515.772 325.414 511.263 333.176 506.981C338.791 503.884 342.748 500.056 341.421 493.01C341.42 493.005 341.421 492.999 341.423 492.995V492.995C341.425 492.992 341.427 492.989 341.428 492.986C342.923 488.851 347.85 487.485 349.698 483.645C350.154 482.697 350.147 481.613 350.14 480.561C350.073 470.358 358.342 461.671 357.365 450.012C357.365 450.009 357.364 450.007 357.363 450.005V450.005Z" fill="white"/>
<path d="M71.968 378.024L74.144 373.032C81.568 373.203 87.6693 374.355 92.448 376.488C97.312 378.536 100.939 381.437 103.328 385.192C105.717 388.861 106.912 393.128 106.912 397.992C106.912 403.197 105.717 407.848 103.328 411.944C100.939 415.955 97.3547 419.155 92.576 421.544C87.8827 423.848 81.9947 425 74.912 425H4L11.424 375.72L4 329H72.352C81.2267 329 88.1387 331.091 93.088 335.272C98.0373 339.368 100.512 345.085 100.512 352.424C100.512 356.435 99.5733 360.275 97.696 363.944C95.8187 367.613 92.7893 370.728 88.608 373.288C84.512 375.763 78.9653 377.341 71.968 378.024ZM30.24 418.856L20 406.44H67.744C71.584 406.44 74.5707 405.501 76.704 403.624C78.8373 401.747 79.904 399.144 79.904 395.816C79.904 392.488 78.752 389.843 76.448 387.88C74.144 385.832 70.7307 384.808 66.208 384.808H26.784V366.632H62.624C65.696 366.632 68.256 365.736 70.304 363.944C72.4373 362.067 73.504 359.549 73.504 356.392C73.504 353.832 72.608 351.741 70.816 350.12C69.024 348.413 66.464 347.56 63.136 347.56H20.128L30.24 335.144L36.768 375.72L30.24 418.856Z" fill="white"/>
<path d="M160.657 427.048C151.782 427.048 143.846 425.427 136.849 422.184C129.937 418.941 124.476 414.419 120.465 408.616C116.454 402.728 114.449 395.901 114.449 388.136C114.449 380.541 116.369 373.885 120.209 368.168C124.049 362.365 129.297 357.843 135.953 354.6C142.694 351.357 150.289 349.736 158.737 349.736C167.526 349.736 174.993 351.656 181.137 355.496C187.366 359.251 192.145 364.584 195.473 371.496C198.886 378.408 200.593 386.557 200.593 395.944H135.569V380.2H185.873L177.297 385.704C176.956 381.949 176.017 378.792 174.481 376.232C172.945 373.587 170.897 371.581 168.337 370.216C165.862 368.851 162.876 368.168 159.377 368.168C155.537 368.168 152.252 368.936 149.521 370.472C146.79 372.008 144.657 374.141 143.121 376.872C141.585 379.517 140.817 382.632 140.817 386.216C140.817 390.824 141.841 394.749 143.889 397.992C146.022 401.149 149.094 403.581 153.105 405.288C157.201 406.995 162.193 407.848 168.081 407.848C173.457 407.848 178.79 407.165 184.081 405.8C189.457 404.349 194.321 402.344 198.673 399.784V416.424C193.638 419.837 187.878 422.483 181.393 424.36C174.993 426.152 168.081 427.048 160.657 427.048Z" fill="white"/>
<circle cx="179.984" cy="336" r="10" fill="white"/>
</svg>
