<svg width="63" height="63" viewBox="0 0 63 63" fill="none" xmlns="http://www.w3.org/2000/svg">
<path d="M62.9879 27.933C62.9362 27.6275 62.7223 27.3739 62.4288 27.2703L17.4077 11.336C15.7324 10.7433 13.8931 11.621 13.3014 13.2964L9.42395 24.2489C9.139 25.0531 9.18647 25.9381 9.55357 26.7079C9.92054 27.4785 10.5788 28.0712 11.3843 28.3551L25.2061 33.2474V39.7352C25.1348 39.7307 25.0679 39.7135 24.9966 39.7135H4.42155C1.97976 39.7135 0 41.6932 0 44.135C0 46.5768 1.97976 48.5566 4.42155 48.5566H24.9964C25.0678 48.5566 25.1346 48.5393 25.206 48.5348V49.6382C25.206 50.859 26.1947 51.849 27.4169 51.849C28.6388 51.849 29.6276 50.859 29.6276 49.6382V34.8114L45.7293 40.5102C46.785 40.8836 47.9592 40.6817 48.8295 39.9759L49.462 39.4629L54.866 41.376C55.6711 41.6609 56.5541 41.6145 57.325 41.2473C58.0957 40.8791 58.6872 40.2207 58.9722 39.4165L60.1142 36.189C60.6733 34.6062 59.9113 32.8911 58.4131 32.2056L62.6835 28.7437C62.9231 28.5483 63.0397 28.2386 62.9879 27.933ZM32.5398 27.6113C32.0346 29.0417 30.9573 30.1513 29.6275 30.7483V28.1023C29.9879 27.7657 30.2836 27.3564 30.4543 26.8741C30.7434 26.0611 30.6961 25.1868 30.3269 24.4095C29.9556 23.6312 29.3035 23.045 28.4894 22.7568C28.142 22.6337 27.7815 22.5722 27.4166 22.5722C26.0541 22.5722 24.8321 23.4358 24.3767 24.7225C23.9384 25.9608 24.3076 27.2885 25.2057 28.139V30.7343C22.6517 29.5912 21.3432 26.6689 22.291 23.9853C23.2646 21.237 26.4578 19.6902 29.2277 20.6735C30.5964 21.158 31.6953 22.1469 32.3214 23.4564C32.9459 24.7669 33.0236 26.2425 32.5398 27.6113Z" fill="#0FE24A"/>
</svg>
