<svg width="68" height="68" viewBox="0 0 68 68" fill="none" xmlns="http://www.w3.org/2000/svg">
<path d="M31.1666 56.6665C26.1915 56.6816 21.3924 54.8262 17.7211 51.4685C14.0499 48.1108 11.7747 43.4959 11.3467 38.5391C10.9188 33.5824 12.3694 28.6459 15.4109 24.7086C18.4524 20.7714 22.8625 18.121 27.7666 17.2832C43.9166 14.1665 48.1666 12.6932 53.8333 5.6665C56.6666 11.3332 59.5 17.5098 59.5 28.3332C59.5 43.9165 45.9566 56.6665 31.1666 56.6665Z" stroke="#0FE24A" stroke-width="4" stroke-linecap="round" stroke-linejoin="round"/>
<path d="M5.66675 59.5C5.66675 51 10.9084 44.3133 20.0601 42.5C26.9167 41.14 34.0001 36.8333 36.8334 34" stroke="#0FE24A" stroke-width="4" stroke-linecap="round" stroke-linejoin="round"/>
</svg>
