<svg width="89" height="89" viewBox="0 0 89 89" fill="none" xmlns="http://www.w3.org/2000/svg">
<path d="M44.5001 81.5832C64.9806 81.5832 81.5834 64.9804 81.5834 44.4998C81.5834 24.0193 64.9806 7.4165 44.5001 7.4165C24.0195 7.4165 7.41675 24.0193 7.41675 44.4998C7.41675 64.9804 24.0195 81.5832 44.5001 81.5832Z" stroke="#0FE24A" stroke-width="2" stroke-linecap="round" stroke-linejoin="round"/>
<path d="M44.5 68C57.4787 68 68 57.4787 68 44.5C68 31.5213 57.4787 21 44.5 21C31.5213 21 21 31.5213 21 44.5C21 57.4787 31.5213 68 44.5 68Z" stroke="#0FE24A" stroke-width="2" stroke-linecap="round" stroke-linejoin="round"/>
<path d="M60.0001 26L68 16" stroke="#0FE24A" stroke-width="2" stroke-linecap="round" stroke-linejoin="round"/>
<path d="M64 31L74.0001 23" stroke="#0FE24A" stroke-width="2" stroke-linecap="round" stroke-linejoin="round"/>
<path d="M14.5 65L25 58.0001" stroke="#0FE24A" stroke-width="2" stroke-linecap="round" stroke-linejoin="round"/>
<path d="M20.5 72.5L28.5 63.1201" stroke="#0FE24A" stroke-width="2" stroke-linecap="round" stroke-linejoin="round"/>
</svg>
