<svg width="63" height="63" viewBox="0 0 63 63" fill="none" xmlns="http://www.w3.org/2000/svg">
<path d="M49.8749 28.875L28.8749 7.875L6.29994 30.45C5.338 31.4314 4.79919 32.7508 4.79919 34.125C4.79919 35.4992 5.338 36.8186 6.29994 37.8L19.9499 51.45C22.0499 53.55 25.1999 53.55 27.2999 51.45L49.8749 28.875Z" stroke="#0FE24A" stroke-width="3" stroke-linecap="round" stroke-linejoin="round"/>
<path d="M13.125 5.25L26.25 18.375" stroke="#0FE24A" stroke-width="3" stroke-linecap="round" stroke-linejoin="round"/>
<path d="M5.25 34.125H44.625" stroke="#0FE24A" stroke-width="3" stroke-linecap="round" stroke-linejoin="round"/>
<path d="M57.75 52.5C57.75 53.8924 57.1969 55.2277 56.2123 56.2123C55.2277 57.1969 53.8924 57.75 52.5 57.75C51.1076 57.75 49.7723 57.1969 48.7877 56.2123C47.8031 55.2277 47.25 53.8924 47.25 52.5C47.25 48.3 51.7125 46.2 52.5 42C53.2875 46.2 57.75 48.3 57.75 52.5Z" stroke="#0FE24A" stroke-width="3" stroke-linecap="round" stroke-linejoin="round"/>
</svg>
